<svg xmlns="http://www.w3.org/2000/svg" viewBox="0 0 202.68 42.06"><defs><style>.cls-1{fill:#fff;}</style></defs><g id="Layer_2" data-name="Layer 2"><g id="Camada_1" data-name="Camada 1"><g id="Layer_2-2" data-name="Layer 2"><g id="Layer_3" data-name="Layer 3"><path class="cls-1" d="M20.38,0V39.23l8.88,2.83V9.14c0-1.53.68-2.58,1.8-2.21,1.44.41,1.73,1.82,1.73,3.36V23.43c5.53,2.68,9.88,0,9.88-7,0-7.24-2.57-10.45-10.06-13A105.83,105.83,0,0,0,20.38,0Z"/><path class="cls-1" d="M30.94,36.32l14.28-5.09c1.62-.58,1.87-1.4.56-1.83a9.72,9.72,0,0,0-5.32.27L30.94,33v-5.3l.55-.19a33.25,33.25,0,0,1,6.61-1.4A28.17,28.17,0,0,1,50.42,27.6c4.19,1.29,4.66,3.27,3.6,4.61a10.2,10.2,0,0,1-3.67,2.3l-19.41,7Z"/><path class="cls-1" d="M4.09,35.78c-4.3-1.21-5-3.73-3.06-5.16a21.25,21.25,0,0,1,4.9-2.35l12.73-4.52v5.16L9.5,32.15C7.88,32.73,7.63,33.56,9,34a9.73,9.73,0,0,0,5.32-.28l4.39-1.59v4.62l-.87.15a28.94,28.94,0,0,1-13.7-1.11"/><path class="cls-1" d="M49.46,39.9A1.69,1.69,0,0,1,50,38.68a1.65,1.65,0,0,1,1.22-.51,1.75,1.75,0,0,1,1.73,1.73,1.73,1.73,0,0,1-3.46,0ZM51.19,42A2.08,2.08,0,1,0,51,42h.23"/><path class="cls-1" d="M51.76,39.38a.32.32,0,0,1-.11.27.6.6,0,0,1-.3.07h-.64v-.65h.68a.62.62,0,0,1,.23,0A.29.29,0,0,1,51.76,39.38Zm.46,1.49a.16.16,0,0,1-.08-.1V40.3a.48.48,0,0,0-.07-.31.53.53,0,0,0-.14-.12.46.46,0,0,0,.17-.17.62.62,0,0,0,.1-.35.59.59,0,0,0-.35-.57,1.26,1.26,0,0,0-.43-.08H50.28V41h.4v-1h.65a1.07,1.07,0,0,1,.25,0,.31.31,0,0,1,.13.25v.55a.14.14,0,0,0,0,.09h.51v-.13h0"/><path class="cls-1" d="M153.5,10H136.55c-4.91,0-7.31,3-7.31,7v12c0,2.45-1.16,4.2-3.61,4.2H109.7a.19.19,0,0,0-.18.18V35.7a.19.19,0,0,0,.18.18h17.78c4.91,0,7.32-3,7.32-7v-12c0-2.44,1.15-4.19,3.6-4.19h15.1a.19.19,0,0,0,.18-.19v-2.4a.19.19,0,0,0-.18-.19"/><path class="cls-1" d="M103.44,10H72.79a.18.18,0,0,0-.19.18v2.4a.19.19,0,0,0,.18.19H101.6c2.44,0,3.6,1.75,3.6,4.2s-1.16,4.19-3.6,4.19H78.81c-3.54,0-6.21,3-6.21,6.92V35.7a.17.17,0,0,0,.17.18H78a.17.17,0,0,0,.18-.17h0V28c0-2.44,1.41-4.14,3.43-4.14h21.85c4.92,0,7.32-3,7.32-7s-2.4-7-7.32-7"/><path class="cls-1" d="M198.88,33.84a1.72,1.72,0,0,1,1.72-1.72,1.68,1.68,0,0,1,1.22.5,1.7,1.7,0,0,1,.52,1.22,1.73,1.73,0,0,1-1.72,1.73h0a1.71,1.71,0,0,1-1.73-1.7v0Zm1.72,2.09a2,2,0,0,0,1.47-.62,2.07,2.07,0,0,0,0-2.93,2,2,0,0,0-1.47-.64,2.07,2.07,0,0,0-2.13,2,2.1,2.1,0,0,0,.64,1.56,2.05,2.05,0,0,0,1.47.62"/><path class="cls-1" d="M201.16,33.32a.28.28,0,0,1-.1.27.63.63,0,0,1-.3.07h-.65V33h.68a.62.62,0,0,1,.23,0A.27.27,0,0,1,201.16,33.32Zm.46,1.49a.24.24,0,0,1-.07-.1c0-.06,0-.09,0-.18v-.29a.39.39,0,0,0-.22-.42.77.77,0,0,0,.18-.18.67.67,0,0,0,.09-.34.56.56,0,0,0-.35-.57.89.89,0,0,0-.43-.08h-1.08V35h.41V34h.64a.69.69,0,0,1,.25,0,.24.24,0,0,1,.13.24v.55l0,.09h.45v-.12h0"/><path id="ps5" class="cls-1" d="M195.39,10h-37V20s-.11,3.87,4.69,3.87h22.64a6.34,6.34,0,0,1,2.58.53,4.18,4.18,0,0,1,2.69,4,4.44,4.44,0,0,1-2,3.92,5,5,0,0,1-2.77.81H158.34V36h31s7-.29,7-7.53a6.64,6.64,0,0,0-4.08-6.4,9.31,9.31,0,0,0-4-.86H165.9a2.35,2.35,0,0,1-1.07-.26,1.9,1.9,0,0,1-1-1.79v-6.4h31.57Z"/></g></g></g></g></svg>