<svg xmlns="http://www.w3.org/2000/svg" viewBox="0 0 899 180.03"><defs><style>.cls-1{fill:#fff;}</style></defs><title>Ativo 2</title><g id="Camada_2" data-name="Camada 2"><g id="Camada_1-2" data-name="Camada 1"><path class="cls-1" d="M89.9,72.19h0C117,92.82,163,143.49,149.09,157.84a90,90,0,0,1-118.38,0c-14.12-14.35,32.07-65,59-85.42a.22.22,0,0,1,.22-.23m46.86-59A87.47,87.47,0,0,0,89.9,0,87.46,87.46,0,0,0,43.05,13.23c-.23,0-.23.22-.23.45s.23.22.45.22c17.49-3.81,43.94,11.21,46.41,12.78h.45c2.46-1.57,28.92-16.59,46.4-12.78.23,0,.46,0,.46-.22s0-.45-.23-.45M26.9,25.78c-.22,0-.22.23-.44.23a90.18,90.18,0,0,0-8.08,118.38c0,.22.23.22.45.22s.23-.22,0-.45C11.88,122.86,47.08,71.52,65.24,50l.23-.23c0-.22,0-.22-.23-.22C37.67,22.19,28.47,25.11,26.9,25.78m87.67,23.54-.23.23a.22.22,0,0,0,.23.22c18.15,21.53,53.13,72.86,46.4,94.17v.45c.23,0,.46,0,.46-.23a89.89,89.89,0,0,0-8.3-118.38c-.23-.22-.23-.22-.45-.22-1.35-.45-10.54-3.37-38.11,23.76"/><path class="cls-1" d="M386.36,91.58a31,31,0,0,0-7.05-4.49,24.4,24.4,0,0,0,12.91-21.51c0-6.86-2.52-29.23-34.91-29.23H313.69V82.66H299.17C297.3,85.11,293,91,291.36,93.45h22.33v50.3h43.62c23.62,0,38.29-12,38.29-31.35a26.36,26.36,0,0,0-9.24-20.82m-60.59-44h31.57c8.52,0,22.83,2.12,22.83,17.08,0,11.29-8.34,18-22.83,18H325.77Zm31.54,85H325.73V93.49h31.58c12,0,26.28,3.3,26.28,18.69,0,17.73-16.47,20.38-26.28,20.38"/><path class="cls-1" d="M290.1,36.38,259.4,78.1,228.73,36.38H214.64l37.64,51.13L211,143.75h14.14L259.4,97.19l34.3,46.56h14.13L266.56,87.51l37.67-51.13Zm281.5,0L540.89,78.1l-30.7-41.72H496.06l37.68,51.13L492.5,143.78h14.12l34.27-46.56,34.3,46.56h14.09L548.05,87.51l37.64-51.13Z"/><path class="cls-1" d="M452.37,33.9C422.2,33.9,401.1,57,401.1,90s21.07,56.13,51.27,56.13,51.16-23,51.16-56.13-21-56.13-51.16-56.13m0,100.9c-23,0-39.08-18.41-39.08-44.77s16.1-44.76,39.08-44.76,39,18.41,39,44.76-16,44.77-39,44.77"/><polygon class="cls-1" points="797.72 36.38 797.72 124.51 732.78 36.32 722.14 36.28 722.14 143.61 734.08 143.61 734.08 57.42 797.72 143.68 809.69 143.71 809.69 36.38 797.72 36.38"/><path class="cls-1" d="M660.12,33.87C630,33.87,608.85,57,608.85,90s21.1,56.16,51.27,56.16S711.28,123.08,711.28,90s-21-56.13-51.16-56.13m0,100.93c-23,0-39.08-18.41-39.08-44.8s16.1-44.77,39.08-44.77,39,18.41,39,44.77-16,44.8-39,44.8"/><polygon class="cls-1" points="835.15 133.18 835.15 93.49 894.22 93.49 894.22 82.98 835.15 82.98 835.15 46.81 898.25 46.81 898.25 36.32 823.14 36.32 823.14 143.68 899 143.68 899 133.18 835.15 133.18"/></g></g></svg>