<svg xmlns="http://www.w3.org/2000/svg" viewBox="0 0 1157 160.65"><defs><style>.cls-1{fill:#fff;}</style></defs><title>Ativo 1</title><g id="Camada_2" data-name="Camada 2"><g id="Camada_1-2" data-name="Camada 1"><path class="cls-1" d="M80.22,64.42h0C104.43,82.83,145.44,128,133,140.84a80.31,80.31,0,0,1-105.63,0C14.81,128,56,82.83,80,64.62a.2.2,0,0,1,.2-.2M122,11.81A78,78,0,0,0,80.22,0,78.05,78.05,0,0,0,38.41,11.81c-.2,0-.2.19-.2.39s.2.2.4.2C54.22,9,77.82,22.41,80,23.81h.41c2.19-1.4,25.8-14.81,41.4-11.41.2,0,.41,0,.41-.2s0-.39-.21-.39M24,23c-.2,0-.2.2-.4.2A80.47,80.47,0,0,0,16.4,128.84c0,.2.21.2.4.2s.2-.2,0-.4c-6.2-19,25.21-64.82,41.42-84l.2-.19c0-.21,0-.21-.2-.21C33.61,19.8,25.41,22.41,24,23m78.22,21-.2.2a.2.2,0,0,0,.2.21c16.2,19.2,47.41,65,41.41,84v.4c.2,0,.4,0,.4-.2A80.19,80.19,0,0,0,136.64,23c-.2-.2-.2-.2-.4-.2-1.2-.4-9.4-3-34,21.2"/><path class="cls-1" d="M321.1,86.88a28.05,28.05,0,0,0-6.2-4A21.45,21.45,0,0,0,326.25,64c0-6-2.21-25.71-30.71-25.71H257.18V79H244.41c-1.65,2.15-5.41,7.34-6.86,9.49h19.63v44.24h38.36c20.78,0,33.68-10.56,33.68-27.57a23.14,23.14,0,0,0-8.12-18.31M267.81,48.17h27.76c7.5,0,20.09,1.86,20.09,15,0,9.93-7.34,15.84-20.09,15.84H267.81Zm27.73,74.75H267.78V88.56h27.76c10.53,0,23.12,2.9,23.12,16.44,0,15.59-14.49,17.92-23.12,17.92"/><path class="cls-1" d="M236.44,38.33,209.43,75l-27-36.69h-12.4l33.11,45-36.31,49.46H179.3l30.13-40.95,30.17,40.95H252L215.73,83.3l33.14-45Zm247.58,0L457,75,430,38.33H417.58l33.14,45-36.27,49.49h12.42L457,91.84l30.17,40.95h12.4L463.31,83.3l33.11-45Z"/><path class="cls-1" d="M379.16,36.15c-26.54,0-45.1,20.3-45.1,49.36s18.53,49.37,45.1,49.37,45-20.27,45-49.37-18.5-49.36-45-49.36m0,88.74c-20.21,0-34.38-16.19-34.38-39.38S359,46.15,379.16,46.15s34.28,16.19,34.28,39.36-14.11,39.38-34.28,39.38"/><path class="cls-1" d="M533.77,101.05a20.88,20.88,0,0,0,1.82,9.2,16.82,16.82,0,0,0,5.15,6.31,21.08,21.08,0,0,0,7.54,3.55,36.28,36.28,0,0,0,9.28,1.16,29.67,29.67,0,0,0,9.2-1.24A18.45,18.45,0,0,0,573,116.8a11.17,11.17,0,0,0,3.4-4.56,14.58,14.58,0,0,0,1.07-5.22c0-3.56-.82-6.3-2.4-8a14.49,14.49,0,0,0-5.3-3.65,104.51,104.51,0,0,0-11.68-3.48c-4.5-1.08-10-2.49-16.42-4.31a35.91,35.91,0,0,1-10.11-4.14,25.9,25.9,0,0,1-6.4-5.72A20,20,0,0,1,521.75,71a27.12,27.12,0,0,1-1-7.21,24.45,24.45,0,0,1,3-12.35,25.33,25.33,0,0,1,7.87-8.62,33.26,33.26,0,0,1,11.11-5.06,49.68,49.68,0,0,1,12.51-1.65,50.73,50.73,0,0,1,13.93,1.91,32.88,32.88,0,0,1,11.44,5.71,29.16,29.16,0,0,1,7.88,9.45,28.25,28.25,0,0,1,2.89,13h-16.5c-.41-6.05-2.48-10.35-6.21-12.84s-8.37-3.74-14.1-3.74a31.37,31.37,0,0,0-6,.58,20.47,20.47,0,0,0-5.55,2A12,12,0,0,0,538.91,56a10.43,10.43,0,0,0-1.66,6,10.19,10.19,0,0,0,3.07,7.88,20,20,0,0,0,8.13,4.31c.33.08,1.74.5,4.14,1.16s5.14,1.42,8.13,2.15,5.88,1.58,8.78,2.32l6.13,1.67a28.76,28.76,0,0,1,8,4,23.54,23.54,0,0,1,5.73,5.71A23.21,23.21,0,0,1,592.79,98a25.6,25.6,0,0,1,1.17,7.38A25.8,25.8,0,0,1,582.18,128a36.11,36.11,0,0,1-12,5.23,59.34,59.34,0,0,1-13.68,1.66,55.81,55.81,0,0,1-15.18-2,35.2,35.2,0,0,1-12.35-6,30.87,30.87,0,0,1-8.45-10.44,35.07,35.07,0,0,1-3.31-15.09h16.57Z"/><polygon class="cls-1" points="598.75 38.3 666.48 38.3 666.48 52.55 615.25 52.55 615.25 77.18 662.66 77.18 662.66 90.6 615.25 90.6 615.25 118.13 667.47 118.13 667.47 132.38 598.83 132.38 598.75 38.3"/><path class="cls-1" d="M675.59,38.3h44.94c10.36,0,18.15,2.23,23.29,6.72s7.8,10.69,7.8,18.72a26.83,26.83,0,0,1-2,11.11A22.75,22.75,0,0,1,745,82a18,18,0,0,1-5.22,3.91A36.23,36.23,0,0,1,736,87.45v.26A14.78,14.78,0,0,1,740.59,89a12.3,12.3,0,0,1,4.56,3.4,19.09,19.09,0,0,1,3.48,6A27,27,0,0,1,750,107.6a83.93,83.93,0,0,0,1.24,15.08c.83,4.56,2.15,7.8,3.9,9.7H737.52a14.27,14.27,0,0,1-2.15-6.71,70.23,70.23,0,0,1-.33-7.13,62.33,62.33,0,0,0-.83-11.11,19,19,0,0,0-2.91-7.8,12.49,12.49,0,0,0-5.71-4.55,24.83,24.83,0,0,0-9.29-1.4H692v38.7h-16.5ZM692.1,81.15h27c5.3,0,9.29-1.24,12-3.73s4.05-6.29,4.05-11.27a17,17,0,0,0-1.32-7.29,10.23,10.23,0,0,0-3.65-4.39,13,13,0,0,0-5.31-2.08,36.89,36.89,0,0,0-6.14-.49H692Z"/><rect class="cls-1" x="760.62" y="38.3" width="16.5" height="94.07"/><polygon class="cls-1" points="788.85 38.3 856.58 38.3 856.58 52.55 805.27 52.55 805.27 77.18 852.67 77.18 852.67 90.6 805.27 90.6 805.27 118.13 857.49 118.13 857.49 132.38 788.85 132.38 788.85 38.3"/><path class="cls-1" d="M879.12,101.05a20.88,20.88,0,0,0,1.81,9.2,16.91,16.91,0,0,0,5.15,6.31,21.13,21.13,0,0,0,7.55,3.55,36.2,36.2,0,0,0,9.27,1.16,29.78,29.78,0,0,0,9.21-1.24,18.4,18.4,0,0,0,6.21-3.23,11.2,11.2,0,0,0,3.41-4.56A14.8,14.8,0,0,0,922.8,107c0-3.56-.83-6.3-2.4-8a14.61,14.61,0,0,0-5.31-3.65,103.88,103.88,0,0,0-11.68-3.48c-4.48-1.08-9.95-2.49-16.42-4.31a35.83,35.83,0,0,1-10.1-4.14,25.49,25.49,0,0,1-6.39-5.72A19.85,19.85,0,0,1,867.1,71a26.72,26.72,0,0,1-1-7.21,24.55,24.55,0,0,1,3-12.35A25.33,25.33,0,0,1,877,42.86a33.23,33.23,0,0,1,11.12-5.06,49.67,49.67,0,0,1,12.5-1.65,50.8,50.8,0,0,1,13.94,1.91A33.06,33.06,0,0,1,926,43.77a29.13,29.13,0,0,1,7.87,9.45,28.25,28.25,0,0,1,2.9,13h-16.5c-.41-6.05-2.48-10.35-6.22-12.84s-8.37-3.74-14.09-3.74a31.29,31.29,0,0,0-6,.58,20.42,20.42,0,0,0-5.56,2A12.23,12.23,0,0,0,884.25,56a10.51,10.51,0,0,0-1.65,6,10.15,10.15,0,0,0,3.07,7.88,20.06,20.06,0,0,0,8.12,4.31c.33.08,1.74.5,4.14,1.16s5.15,1.42,8.13,2.15,5.88,1.58,8.79,2.32L921,81.41a28.49,28.49,0,0,1,8,4A24,24,0,0,1,938.13,98a25.26,25.26,0,0,1,1.17,7.38A25.82,25.82,0,0,1,927.53,128a36.08,36.08,0,0,1-12,5.23,59.32,59.32,0,0,1-13.67,1.66,55.81,55.81,0,0,1-15.18-2,35,35,0,0,1-12.35-6,30.87,30.87,0,0,1-8.45-10.44,35.07,35.07,0,0,1-3.32-15.09h16.58Z"/><rect class="cls-1" x="1058.89" y="22.44" width="12.34" height="125.81"/><path class="cls-1" d="M1150.61,88.74c-4.75-4.28-12.36-7.61-22.82-9.51l-8.08-1.9c-7.62-1.43-12.84-3.8-15.69-5.71s-4.28-5.23-4.28-9.51,1.42-7.14,4.74-9.5,7.61-3.33,13.8-3.33c7.62,0,13.31,1.42,16.64,4.28s5.23,7.13,5.72,12.83h13.77c0-9-3.31-16.16-9.51-21.39s-15.21-7.62-27.1-7.62c-10,0-18.06,2.39-23.78,6.67s-8.56,10.46-8.56,18.06,2.39,13.33,7.14,17.6,11.88,7.6,21.39,9.51l7.63,1.9c7.59,1.9,13.3,3.8,16.15,5.7a11,11,0,0,1,4.28,9,14.48,14.48,0,0,1-5.23,11.41c-3.8,2.37-9,3.8-15.69,3.8-8.09,0-14.26-1.9-18.55-5.23s-6.17-8.56-6.17-15.2h-13.79c0,10.46,3.32,18.53,10.46,24.23,6.66,5.71,16.17,8.1,28.05,8.1,10.95,0,20-2.39,26.15-7.14a24.58,24.58,0,0,0,9.51-20,18.61,18.61,0,0,0-6.18-17.12"/><polygon class="cls-1" points="964.87 38.13 984.51 38.13 1005.89 71.37 1028.19 38.13 1046.68 38.13 1015.6 83.48 1048.92 132.21 1028.86 132.21 1005.4 96.24 981.53 132.21 962.72 132.21 996.04 83.48 964.87 38.13"/></g></g></svg>